# xmcd
#
# Track frame offsets:
#	150
#	22452
#	46335
#	72454
#	93095
#	114905
#	144245
#	166645
#	187245
#	213624
#	232560
#	251402
#
# Disc length: 3703 seconds
#
# Revision: 0
# Processed by: cddbd v1.5.1PL0 Copyright (c) Steve Scherf et al.
# Submitted via: dBpowerAMP V4.0
#
DISCID=9e0e750c
DTITLE=Arc Angels - Arc Angels
DYEAR=1900
DGENRE=Blues
TTITLE0=Living in a dream
TTITLE1=Paradise café
TTITLE2=Sent by angels
TTITLE3=Sweet Nadine
TTITLE4=Good time
TTITLE5=See what tomorrow brings
TTITLE6=Always believed in you
TTITLE7=The famous Jane
TTITLE8=Spanish moon
TTITLE9=Carry me on
TTITLE10=Shape I'm in
TTITLE11=Too many ways to fall
EXTD=
EXTT0=
EXTT1=
EXTT2=
EXTT3=
EXTT4=
EXTT5=
EXTT6=
EXTT7=
EXTT8=
EXTT9=
EXTT10=
EXTT11=
PLAYORDER=
